<mxfile host="app.diagrams.net" modified="2020-09-23T04:17:29.414Z" agent="5.0 (Windows NT 10.0; WOW64) AppleWebKit/537.36 (KHTML, like Gecko) Chrome/72.0.3626.81 Safari/537.36 SE 2.X MetaSr 1.0" etag="rCmAbWwg6R9Rj4XdeFTu" version="13.7.4" type="github">
  <diagram id="C5RBs43oDa-KdzZeNtuy" name="Page-1">
    <mxGraphModel dx="2834" dy="870" grid="1" gridSize="10" guides="1" tooltips="1" connect="1" arrows="1" fold="1" page="1" pageScale="1" pageWidth="827" pageHeight="1169" math="0" shadow="0">
      <root>
        <mxCell id="WIyWlLk6GJQsqaUBKTNV-0" />
        <mxCell id="WIyWlLk6GJQsqaUBKTNV-1" parent="WIyWlLk6GJQsqaUBKTNV-0" />
        <mxCell id="ZPdB1FBcaC2-CpLJvqNs-25" style="edgeStyle=orthogonalEdgeStyle;rounded=0;orthogonalLoop=1;jettySize=auto;html=1;fontColor=#000000;" edge="1" parent="WIyWlLk6GJQsqaUBKTNV-1" source="WIyWlLk6GJQsqaUBKTNV-3">
          <mxGeometry relative="1" as="geometry">
            <mxPoint x="-892" y="311.25" as="targetPoint" />
          </mxGeometry>
        </mxCell>
        <mxCell id="WIyWlLk6GJQsqaUBKTNV-3" value="&lt;p style=&quot;line-height: normal ; margin-top: 0pt ; margin-bottom: 0pt ; margin-left: 0in ; text-align: left ; direction: ltr ; unicode-bidi: embed ; word-break: normal&quot;&gt;&lt;span style=&quot;font-size: 12pt ; font-family: &amp;#34;calibri&amp;#34;&quot;&gt;corpus&lt;/span&gt;&lt;/p&gt;" style="rounded=1;whiteSpace=wrap;html=1;fontSize=12;glass=0;strokeWidth=1;shadow=0;fillColor=#fff2cc;strokeColor=#d6b656;" parent="WIyWlLk6GJQsqaUBKTNV-1" vertex="1">
          <mxGeometry x="-1052" y="291.25" width="120" height="40" as="geometry" />
        </mxCell>
        <mxCell id="WIyWlLk6GJQsqaUBKTNV-7" value="&lt;p style=&quot;margin-top: 0pt ; margin-bottom: 0pt ; margin-left: 0in ; text-align: left ; direction: ltr ; unicode-bidi: embed ; word-break: normal&quot;&gt;&lt;span style=&quot;font-size: 12pt ; font-family: &amp;#34;calibri&amp;#34;&quot;&gt;extracted triples&lt;/span&gt;&lt;/p&gt;&lt;p style=&quot;margin-top: 0pt ; margin-bottom: 0pt ; margin-left: 0in ; text-align: left ; direction: ltr ; unicode-bidi: embed ; word-break: normal&quot;&gt;&lt;span style=&quot;font-size: 12pt ; font-family: &amp;#34;calibri&amp;#34;&quot;&gt;candidate vocabulary&lt;/span&gt;&lt;/p&gt;" style="rounded=1;whiteSpace=wrap;html=1;fontSize=12;glass=0;strokeWidth=1;shadow=0;fillColor=#fff2cc;strokeColor=#d6b656;" parent="WIyWlLk6GJQsqaUBKTNV-1" vertex="1">
          <mxGeometry x="-639" y="286.25" width="160" height="50" as="geometry" />
        </mxCell>
        <mxCell id="WIyWlLk6GJQsqaUBKTNV-12" value="&lt;p style=&quot;margin-top: 0pt ; margin-bottom: 0pt ; margin-left: 0in ; text-align: left ; direction: ltr ; unicode-bidi: embed ; word-break: normal&quot;&gt;&lt;span style=&quot;font-size: 12pt ; font-family: &amp;#34;calibri&amp;#34;&quot;&gt;User &amp;amp; item embedding vector&lt;/span&gt;&lt;/p&gt;&lt;p style=&quot;margin-top: 0pt ; margin-bottom: 0pt ; margin-left: 0in ; text-align: left ; direction: ltr ; unicode-bidi: embed ; word-break: normal&quot;&gt;&lt;span style=&quot;font-size: 12pt ; font-family: &amp;#34;calibri&amp;#34;&quot;&gt;Rec result&lt;/span&gt;&lt;/p&gt;" style="rounded=1;whiteSpace=wrap;html=1;fontSize=12;glass=0;strokeWidth=1;shadow=0;fillColor=#fff2cc;strokeColor=#d6b656;" parent="WIyWlLk6GJQsqaUBKTNV-1" vertex="1">
          <mxGeometry x="-644" y="397.5" width="210" height="60" as="geometry" />
        </mxCell>
        <mxCell id="ZPdB1FBcaC2-CpLJvqNs-4" style="edgeStyle=orthogonalEdgeStyle;rounded=0;orthogonalLoop=1;jettySize=auto;html=1;exitX=1;exitY=0.5;exitDx=0;exitDy=0;" edge="1" parent="WIyWlLk6GJQsqaUBKTNV-1" source="ZPdB1FBcaC2-CpLJvqNs-1">
          <mxGeometry relative="1" as="geometry">
            <mxPoint x="-912" y="427.25" as="targetPoint" />
          </mxGeometry>
        </mxCell>
        <mxCell id="ZPdB1FBcaC2-CpLJvqNs-1" value="&lt;p style=&quot;margin-top: 0pt ; margin-bottom: 0pt ; margin-left: 0in ; text-align: left ; direction: ltr ; unicode-bidi: embed ; word-break: normal&quot;&gt;&lt;span style=&quot;font-size: 12pt ; font-family: &amp;#34;calibri&amp;#34;&quot;&gt;User feature&amp;nbsp;&amp;nbsp;&lt;/span&gt;&lt;/p&gt;&lt;p style=&quot;margin-top: 0pt ; margin-bottom: 0pt ; margin-left: 0in ; text-align: left ; direction: ltr ; unicode-bidi: embed ; word-break: normal&quot;&gt;&lt;span style=&quot;font-family: &amp;#34;calibri&amp;#34; ; font-size: 12pt&quot;&gt;Item feature&lt;/span&gt;&lt;/p&gt;&lt;p style=&quot;margin-top: 0pt ; margin-bottom: 0pt ; margin-left: 0in ; text-align: left ; direction: ltr ; unicode-bidi: embed ; word-break: normal&quot;&gt;&lt;span style=&quot;font-size: 12pt ; font-family: &amp;#34;calibri&amp;#34;&quot;&gt;User-item behavior in &lt;/span&gt;&lt;span style=&quot;font-size: 12pt ; font-family: &amp;#34;calibri&amp;#34;&quot;&gt;session&amp;nbsp;&lt;/span&gt;&lt;/p&gt;" style="rounded=1;whiteSpace=wrap;html=1;fontSize=12;glass=0;strokeWidth=1;shadow=0;fillColor=#fff2cc;strokeColor=#d6b656;" vertex="1" parent="WIyWlLk6GJQsqaUBKTNV-1">
          <mxGeometry x="-1162" y="390.63" width="230" height="73.75" as="geometry" />
        </mxCell>
        <mxCell id="ZPdB1FBcaC2-CpLJvqNs-15" style="edgeStyle=orthogonalEdgeStyle;rounded=0;orthogonalLoop=1;jettySize=auto;html=1;entryX=0;entryY=0.5;entryDx=0;entryDy=0;fontColor=#000000;" edge="1" parent="WIyWlLk6GJQsqaUBKTNV-1" target="WIyWlLk6GJQsqaUBKTNV-12">
          <mxGeometry relative="1" as="geometry">
            <mxPoint x="-682" y="427.25" as="sourcePoint" />
          </mxGeometry>
        </mxCell>
        <mxCell id="ZPdB1FBcaC2-CpLJvqNs-14" value="&lt;span style=&quot;font-size: 12pt ; font-family: &amp;#34;calibri&amp;#34;&quot;&gt;embedding model&lt;/span&gt;" style="shape=parallelogram;perimeter=parallelogramPerimeter;whiteSpace=wrap;html=1;fixedSize=1;fontColor=#000000;" vertex="1" parent="WIyWlLk6GJQsqaUBKTNV-1">
          <mxGeometry x="-902" y="401.25" width="215" height="52.5" as="geometry" />
        </mxCell>
        <mxCell id="ZPdB1FBcaC2-CpLJvqNs-16" value="&lt;span style=&quot;font-family: &amp;#34;calibri&amp;#34; ; font-size: 16px&quot;&gt;comments&lt;/span&gt;" style="shape=parallelogram;perimeter=parallelogramPerimeter;whiteSpace=wrap;html=1;fixedSize=1;fontColor=#000000;" vertex="1" parent="WIyWlLk6GJQsqaUBKTNV-1">
          <mxGeometry x="-892" y="320" width="215" height="52.5" as="geometry" />
        </mxCell>
        <mxCell id="ZPdB1FBcaC2-CpLJvqNs-17" value="&lt;span style=&quot;font-family: &amp;#34;calibri&amp;#34; ; font-size: 16px&quot;&gt;related content&lt;/span&gt;" style="shape=parallelogram;perimeter=parallelogramPerimeter;whiteSpace=wrap;html=1;fixedSize=1;fontColor=#000000;" vertex="1" parent="WIyWlLk6GJQsqaUBKTNV-1">
          <mxGeometry x="-892" y="280" width="215" height="52.5" as="geometry" />
        </mxCell>
        <mxCell id="ZPdB1FBcaC2-CpLJvqNs-18" value="&lt;span style=&quot;font-size: 12pt ; font-family: &amp;#34;calibri&amp;#34;&quot;&gt;Historical&amp;nbsp;&lt;/span&gt;&lt;span style=&quot;font-size: 12pt ; font-family: &amp;#34;calibri&amp;#34;&quot;&gt;keywords&lt;/span&gt;&lt;span style=&quot;font-size: 12pt ; font-family: &amp;#34;calibri&amp;#34;&quot;&gt;&amp;nbsp;&lt;br&gt;&lt;/span&gt;&lt;span style=&quot;font-size: 12pt ; font-family: &amp;#34;calibri&amp;#34;&quot;&gt;Product&amp;nbsp;&amp;nbsp;&lt;/span&gt;&lt;span style=&quot;font-size: 12pt ; font-family: &amp;#34;calibri&amp;#34;&quot;&gt;description&lt;/span&gt;&lt;span style=&quot;font-size: 12pt ; font-family: &amp;#34;calibri&amp;#34;&quot;&gt;&amp;nbsp;&lt;/span&gt;" style="shape=parallelogram;perimeter=parallelogramPerimeter;whiteSpace=wrap;html=1;fixedSize=1;fontColor=#000000;" vertex="1" parent="WIyWlLk6GJQsqaUBKTNV-1">
          <mxGeometry x="-892" y="240" width="215" height="52.5" as="geometry" />
        </mxCell>
        <mxCell id="ZPdB1FBcaC2-CpLJvqNs-27" style="edgeStyle=orthogonalEdgeStyle;rounded=0;orthogonalLoop=1;jettySize=auto;html=1;fontColor=#000000;" edge="1" parent="WIyWlLk6GJQsqaUBKTNV-1">
          <mxGeometry relative="1" as="geometry">
            <mxPoint x="-639" y="311.15" as="targetPoint" />
            <mxPoint x="-679" y="311.15" as="sourcePoint" />
          </mxGeometry>
        </mxCell>
        <mxCell id="ZPdB1FBcaC2-CpLJvqNs-29" value="" style="rounded=1;whiteSpace=wrap;html=1;fillColor=none;dashed=1;" vertex="1" parent="WIyWlLk6GJQsqaUBKTNV-1">
          <mxGeometry x="-664" y="240" width="250" height="241.25" as="geometry" />
        </mxCell>
        <mxCell id="ZPdB1FBcaC2-CpLJvqNs-32" value="Default Keywords" style="text;html=1;strokeColor=none;fillColor=none;align=center;verticalAlign=middle;whiteSpace=wrap;rounded=0;fontStyle=1;fontColor=#EA6B66;fontSize=15;" vertex="1" parent="WIyWlLk6GJQsqaUBKTNV-1">
          <mxGeometry x="-650" y="250" width="159" height="20" as="geometry" />
        </mxCell>
        <mxCell id="ZPdB1FBcaC2-CpLJvqNs-34" value="&lt;span style=&quot;font-family: &amp;#34;calibri&amp;#34; ; font-size: 12pt ; text-align: left&quot;&gt;Similar to&lt;/span&gt;&lt;span style=&quot;font-family: &amp;#34;calibri&amp;#34; ; font-size: 12pt ; text-align: left&quot;&gt;&amp;nbsp; &lt;/span&gt;&lt;span style=&quot;font-family: &amp;#34;calibri&amp;#34; ; font-size: 12pt ; text-align: left&quot;&gt;“default keywords”&lt;/span&gt;" style="rounded=1;whiteSpace=wrap;html=1;fillColor=none;verticalAlign=middle;dashed=1;" vertex="1" parent="WIyWlLk6GJQsqaUBKTNV-1">
          <mxGeometry x="-660" y="510" width="246" height="81.88" as="geometry" />
        </mxCell>
        <mxCell id="ZPdB1FBcaC2-CpLJvqNs-35" value="Hot Keywords" style="text;html=1;strokeColor=none;fillColor=none;align=center;verticalAlign=middle;whiteSpace=wrap;rounded=0;fontStyle=1;fontColor=#EA6B66;fontSize=15;" vertex="1" parent="WIyWlLk6GJQsqaUBKTNV-1">
          <mxGeometry x="-650" y="520" width="125" height="20" as="geometry" />
        </mxCell>
      </root>
    </mxGraphModel>
  </diagram>
</mxfile>
